<?xml version="1.0" standalone="no"?>
<!DOCTYPE svg PUBLIC "-//W3C//DTD SVG 20010904//EN"
 "http://www.w3.org/TR/2001/REC-SVG-20010904/DTD/svg10.dtd">
<svg version="1.0" xmlns="http://www.w3.org/2000/svg"
 width="454.000000pt" height="454.000000pt" viewBox="0 0 454.000000 454.000000"
 preserveAspectRatio="xMidYMid meet">
<metadata>
Created by potrace 1.11, written by Peter Selinger 2001-2013
</metadata>
<g transform="translate(0.000000,454.000000) scale(0.100000,-0.100000)"
fill="#000000" stroke="none">
<path d="M164 4517 c3 -12 8 -32 12 -44 4 -14 2 -23 -5 -23 -6 0 -10 5 -8 11
3 18 -20 21 -27 4 -3 -9 -2 -13 4 -10 5 3 12 -5 15 -18 5 -19 12 -23 35 -22
41 2 49 -24 10 -32 -36 -7 -38 -16 -6 -36 36 -24 62 -17 80 20 9 18 20 33 26
33 5 0 10 5 10 10 0 6 -11 8 -25 4 -20 -5 -24 -3 -19 10 3 9 10 16 16 16 5 0
16 7 24 15 21 21 34 19 34 -5 0 -11 4 -20 10 -20 5 0 7 8 4 18 -4 12 -3 14 4
4 5 -7 7 -24 4 -38 -3 -17 0 -24 11 -24 8 0 18 -6 20 -12 3 -7 6 -1 6 15 1 28
15 37 24 15 4 -9 6 -7 6 3 1 16 34 19 48 4 5 -4 2 -5 -4 -1 -9 5 -13 -1 -13
-19 l0 -26 24 28 c19 21 27 25 36 16 15 -14 4 -34 -14 -27 -8 3 -17 1 -20 -4
-3 -5 8 -9 24 -10 23 0 32 6 42 28 9 22 16 26 28 20 12 -6 22 -3 34 12 10 11
20 18 22 15 8 -8 -20 -47 -33 -47 -7 0 -13 -8 -13 -17 0 -15 2 -16 10 -3 6 10
10 11 10 3 0 -7 5 -13 10 -13 6 0 9 3 9 8 -1 4 -1 14 0 22 1 13 2 13 11 0 9
-13 11 -13 20 0 16 25 11 48 -12 56 -30 9 -46 26 -50 55 -3 22 -8 24 -73 27
-38 2 -66 0 -62 -4 7 -7 -21 -33 -37 -34 -4 0 -6 9 -3 19 4 18 -2 19 -129 20
-133 0 -134 0 -130 -22z m256 -28 c0 -5 9 -9 19 -9 14 0 18 -5 14 -19 -3 -12
-11 -17 -19 -14 -8 3 -14 0 -14 -6 0 -6 -7 -11 -15 -11 -8 0 -15 -4 -15 -10 0
-5 -4 -10 -8 -10 -11 0 -7 49 5 61 7 7 9 18 6 25 -4 10 0 12 11 8 9 -3 16 -10
16 -15z m170 -39 c0 -5 -5 -10 -11 -10 -5 0 -7 5 -4 10 3 6 8 10 11 10 2 0 4
-4 4 -10z"/>
<path d="M616 4533 c-3 -3 -6 -16 -5 -27 0 -15 2 -17 6 -6 3 8 10 18 16 21 6
4 6 9 -1 12 -5 4 -12 4 -16 0z"/>
<path d="M3158 4533 c6 -2 18 -2 25 0 6 3 1 5 -13 5 -14 0 -19 -2 -12 -5z"/>
<path d="M3443 4506 c1 -30 3 -32 19 -22 10 6 18 22 18 36 0 20 -2 22 -10 10
-6 -10 -10 -11 -10 -2 0 6 -4 12 -9 12 -5 0 -9 -15 -8 -34z"/>
<path d="M3510 4529 c0 -6 -6 -7 -12 -3 -8 5 -8 1 1 -10 13 -15 13 -19 0 -26
-11 -7 -11 -12 -1 -22 9 -9 15 -8 28 8 15 18 15 18 5 -3 -6 -12 -11 -32 -10
-45 0 -13 3 -17 6 -10 2 6 9 12 14 12 4 0 6 -7 3 -15 -4 -8 -2 -15 2 -16 32
-3 50 -10 63 -26 13 -16 13 -17 8 0 -4 11 -1 17 8 17 8 0 15 4 15 9 0 5 3 17
7 27 4 12 3 15 -5 10 -21 -13 -18 39 3 60 11 11 14 11 18 0 3 -8 3 -24 0 -35
-3 -12 -1 -21 6 -21 6 0 11 5 11 10 0 21 29 9 39 -17 l11 -28 -3 33 c-2 17 0
32 5 32 4 0 8 -6 8 -12 0 -9 4 -8 10 2 8 13 14 8 12 -11 -1 -3 6 -6 14 -6 8 0
13 6 10 13 -3 7 0 15 7 18 7 2 2 5 -10 5 -19 1 -40 32 -35 52 0 4 -53 7 -118
7 -74 1 -120 -3 -120 -9z m90 -49 c0 -14 -8 -37 -18 -53 l-19 -28 -1 36 c-1
20 -4 40 -7 45 -9 15 3 29 25 27 14 -1 20 -8 20 -27z m150 1 c0 -3 -11 -7 -25
-7 -28 -2 -30 1 -12 20 11 13 37 4 37 -13z"/>
<path d="M3776 4533 c12 -2 26 -14 31 -25 6 -15 12 -18 17 -10 4 7 2 12 -5 12
-7 0 -4 7 7 15 18 13 16 14 -26 13 -25 0 -35 -3 -24 -5z"/>
<path d="M3991 4526 c-9 -11 -9 -16 1 -22 7 -4 10 -4 6 1 -4 4 0 14 10 21 9 7
12 14 6 14 -6 0 -17 -6 -23 -14z"/>
<path d="M4033 4518 c1 -20 12 -24 22 -8 3 6 13 10 22 10 11 0 14 -6 9 -24 -5
-20 -3 -23 20 -18 24 4 24 5 7 26 -18 21 -18 21 2 5 11 -9 27 -14 35 -11 12 4
13 2 3 -9 -14 -18 -1 -45 17 -34 6 4 10 16 7 26 -3 11 -1 19 4 19 5 0 9 -7 9
-15 0 -17 12 -19 26 -5 7 7 11 6 11 -4 0 -8 -4 -13 -8 -10 -4 2 -11 -5 -14
-17 -4 -11 -5 -21 -3 -22 1 -1 13 -11 25 -21 l23 -19 -4 31 c-2 18 0 32 5 32
4 0 7 9 6 20 -1 11 -5 20 -9 20 -4 0 -8 7 -8 15 0 8 -5 15 -12 15 -6 0 -9 2
-6 5 3 3 16 1 29 -4 13 -5 20 -10 16 -10 -14 -2 13 -41 28 -41 8 0 15 -9 15
-21 0 -15 -5 -19 -19 -14 -15 4 -21 -1 -30 -26 -9 -27 -9 -30 4 -19 8 7 12 16
9 21 -3 5 0 9 6 9 7 0 9 -8 5 -20 -4 -11 -2 -20 4 -20 6 0 11 9 11 20 0 11 7
20 15 20 8 0 15 9 15 20 0 22 24 27 36 8 5 -8 10 -6 14 7 6 18 7 17 12 -3 4
-12 2 -20 -3 -16 -5 3 -9 0 -9 -7 0 -8 -5 -6 -12 4 -11 15 -13 13 -13 -18 0
-32 1 -34 14 -18 12 16 13 14 9 -15 -4 -24 -1 -32 9 -28 7 3 13 0 13 -7 0 -7
9 -13 20 -13 26 0 25 2 -6 31 -26 24 -26 25 -5 25 11 0 21 -6 21 -13 0 -7 9
-18 20 -25 25 -15 25 -31 3 -48 -17 -13 -17 -13 1 -14 17 0 15 -14 -2 -16 -34
-4 -59 -45 -53 -84 2 -12 -1 -11 -17 3 -12 11 -18 25 -15 33 3 8 0 14 -6 14
-6 0 -11 -6 -11 -12 0 -9 -4 -8 -10 2 -6 10 -10 11 -10 2 0 -6 -5 -11 -11 -10
-12 3 -34 -60 -25 -70 3 -3 6 3 7 14 0 18 1 18 10 -1 l9 -20 -1 20 c-2 35 1
42 15 42 11 0 12 -5 5 -18 -5 -10 -6 -25 -3 -33 4 -10 1 -16 -8 -16 -17 0 -45
-46 -35 -57 4 -3 15 1 25 10 10 10 22 14 25 10 4 -3 7 0 7 8 0 8 14 25 30 39
17 14 30 32 31 40 0 10 2 11 6 3 2 -7 10 -13 16 -13 7 0 13 -14 14 -32 2 -28
1 -29 -11 -13 -13 18 -14 18 -20 -3 -4 -12 -4 -27 1 -34 4 -7 6 -23 5 -35 -2
-11 2 -24 7 -28 6 -3 11 -14 11 -23 0 -15 -2 -15 -10 -2 -9 13 -11 13 -19 0
-12 -18 -5 -30 20 -30 16 0 19 6 17 34 -1 19 -6 32 -10 30 -4 -3 -8 -2 -8 3 0
17 16 29 39 30 24 2 24 -5 6 -49 -5 -13 -2 -18 8 -18 9 0 18 8 20 18 3 9 5
-866 6 -1945 1 -1374 -2 -1964 -10 -1968 -5 -4 -15 -18 -20 -32 -7 -18 -13
-22 -22 -15 -8 7 -16 6 -24 -3 -10 -11 -10 -15 0 -18 7 -3 -9 -6 -34 -6 -36
-1 -48 3 -54 17 -6 16 -7 16 -19 0 -9 -13 -27 -18 -60 -18 -46 0 -55 7 -36 26
8 8 6 15 -6 25 -14 11 -18 11 -29 -5 -8 -10 -18 -15 -23 -12 -5 3 -12 -3 -15
-14 -5 -19 -14 -20 -192 -20 -160 0 -186 2 -182 15 4 8 2 17 -3 20 -6 4 -10
-3 -10 -14 l0 -21 -1221 0 c-842 0 -1218 3 -1214 10 4 7 -2 9 -19 4 -20 -5
-26 -2 -26 10 0 9 -5 16 -11 16 -6 0 -9 -9 -6 -20 5 -21 2 -21 -219 -19 -132
1 -224 5 -224 11 0 5 -3 7 -8 5 -4 -3 -14 2 -22 11 -13 14 -12 15 3 9 20 -7
21 -3 6 25 -6 11 -7 18 -2 15 13 -8 33 28 23 43 -6 9 -9 8 -14 -7 -3 -10 -15
-19 -26 -20 -27 -2 -27 31 0 50 11 8 17 17 13 20 -11 12 -23 8 -23 -8 0 -8 -4
-15 -10 -15 -5 0 -10 -13 -10 -29 0 -28 -1 -29 -43 -26 -23 3 -37 2 -30 -1 9
-4 9 -11 1 -30 -13 -28 -23 -30 -38 -7 -10 17 -10 16 -9 -2 3 -42 0 -47 -34
-43 -17 1 -36 7 -40 13 -6 7 -10 6 -14 -3 -4 -10 -9 -9 -19 5 -13 17 -14 17
-8 0 3 -9 1 -17 -5 -17 -14 0 -14 25 0 52 6 11 8 22 5 25 -3 4 -11 -7 -17 -24
-8 -24 -15 -30 -30 -26 -15 4 -18 2 -13 -11 3 -9 1 -16 -5 -16 -11 0 -15 13
-12 37 1 7 -11 11 -29 11 -29 -1 -33 -6 -31 -38 0 -8 -5 -3 -12 13 -7 15 -16
25 -20 21 -3 -4 -2 7 3 25 5 19 5 29 -1 26 -5 -4 -9 -1 -9 5 0 6 -5 8 -10 5
-6 -4 -8 -11 -5 -16 3 -5 -1 -6 -9 -3 -9 3 -13 10 -10 15 3 5 0 9 -6 9 -6 0
-15 11 -22 25 l-11 24 -23 -22 c-27 -25 -31 -47 -9 -47 8 0 15 -4 15 -8 0 -12
-43 -9 -52 3 -5 7 -8 6 -8 -1 0 -5 10 -21 22 -34 18 -19 19 -23 5 -17 -15 6
-17 3 -12 -13 6 -19 2 -20 -59 -20 -40 0 -66 4 -66 11 0 5 4 8 9 5 7 -5 21 15
21 30 0 13 -19 0 -30 -21 -15 -28 -54 -34 -64 -9 -9 22 -8 23 13 17 16 -4 19
-1 14 16 -3 12 0 28 7 36 14 17 6 60 -15 82 -13 13 -15 13 -15 -1 0 -8 5 -18
10 -21 6 -3 10 -14 10 -23 0 -12 -3 -13 -12 -4 -7 7 -19 12 -28 12 -13 0 -13
-1 0 -10 8 -5 10 -10 4 -10 -7 0 -12 -27 -13 -75 l-1 -75 2270 0 2270 0 0
2270 0 2271 -37 -2 c-21 -2 -44 -7 -52 -13 -11 -8 -13 -8 -7 2 6 10 -21 12
-123 11 -73 -1 -131 -6 -131 -11 0 -5 5 -6 12 -2 7 4 8 3 4 -4 -10 -17 -26
-15 -26 4 0 13 -12 15 -74 13 -64 -3 -74 -6 -73 -21z m277 -23 c0 -8 -2 -15
-4 -15 -2 0 -6 7 -10 15 -3 8 -1 15 4 15 6 0 10 -7 10 -15z m168 -19 c-7 -8
-15 -12 -17 -11 -5 6 10 25 20 25 5 0 4 -6 -3 -14z m-28 -66 c12 -23 12 -24
-3 -11 -10 7 -17 20 -17 29 0 18 3 16 20 -18z m59 -9 c-2 -6 -10 2 -17 17 -11
25 -11 25 4 10 9 -9 15 -21 13 -27z m1 -104 c0 -63 -3 -84 -13 -84 -14 0 -17
60 -4 73 11 11 8 76 -3 69 -5 -3 -10 -2 -10 4 0 8 9 14 28 20 1 1 2 -36 2 -82z
m-57 -55 c3 7 6 3 6 -9 1 -23 -17 -27 -31 -8 -13 17 -9 28 6 16 11 -9 15 -9
19 1z m-72 -58 c12 -15 11 -16 -9 -10 -18 6 -21 4 -15 -11 4 -13 3 -15 -6 -7
-12 11 -5 44 9 44 4 0 14 -7 21 -16z m126 -16 c-3 -7 -5 -2 -5 12 0 14 2 19 5
13 2 -7 2 -19 0 -25z m2 -85 c0 -25 -1 -25 -8 -8 -5 11 -7 23 -4 28 8 14 13 7
12 -20z m1 -4008 c0 -32 -2 -35 -30 -35 -16 0 -30 4 -30 10 0 5 3 9 8 8 14 -3
42 14 36 23 -5 9 3 29 12 29 2 0 4 -16 4 -35z m-320 -25 c0 -5 -5 -10 -11 -10
-5 0 -7 5 -4 10 3 6 8 10 11 10 2 0 4 -4 4 -10z"/>
<path d="M660 4480 c0 -5 5 -10 11 -10 5 0 7 5 4 10 -3 6 -8 10 -11 10 -2 0
-4 -4 -4 -10z"/>
<path d="M3980 4466 c0 -9 5 -16 10 -16 6 0 10 4 10 9 0 6 -4 13 -10 16 -5 3
-10 -1 -10 -9z"/>
<path d="M4122 4460 c2 -10 -3 -14 -14 -12 -12 2 -18 -4 -18 -18 0 -23 10 -26
28 -8 10 10 15 10 23 -2 8 -11 9 -9 4 10 -8 28 -29 55 -23 30z"/>
<path d="M116 4437 c3 -10 9 -15 12 -12 3 3 0 11 -7 18 -10 9 -11 8 -5 -6z"/>
<path d="M42 4420 c-18 -29 -15 -38 4 -12 9 13 14 25 12 27 -2 2 -9 -5 -16
-15z"/>
<path d="M710 4420 c0 -11 4 -20 9 -20 5 0 7 9 4 20 -3 11 -7 20 -9 20 -2 0
-4 -9 -4 -20z"/>
<path d="M3671 4401 c-7 -5 -12 -14 -10 -20 3 -7 11 -3 21 9 18 21 13 26 -11
11z"/>
<path d="M4213 4390 c1 -14 6 -35 13 -48 l12 -23 4 26 c4 16 -1 34 -13 48
l-18 22 2 -25z"/>
<path d="M4320 4399 c-11 -8 -12 -12 -3 -16 9 -3 10 -10 3 -22 -5 -10 -6 -22
-2 -26 4 -5 -1 -5 -10 -2 -15 5 -18 1 -17 -21 1 -17 3 -20 6 -9 5 18 23 24 23
6 0 -5 5 -7 10 -4 7 4 7 13 0 24 -6 12 -5 22 1 28 6 6 9 20 7 32 -2 16 -6 18
-18 10z"/>
<path d="M24 4367 c-9 -24 -1 -35 18 -28 14 5 15 8 3 25 -13 17 -15 17 -21 3z"/>
<path d="M4275 4361 c3 -2 -1 -11 -7 -20 -8 -10 -3 -8 12 4 14 11 27 21 29 22
2 1 -6 1 -17 0 -12 0 -19 -3 -17 -6z"/>
<path d="M335 4340 c-3 -11 -4 -24 0 -30 8 -13 43 22 37 38 -7 19 -30 14 -37
-8z"/>
<path d="M414 4336 c-4 -11 -7 -25 -8 -31 -1 -5 -5 -13 -11 -17 -12 -9 11 -10
43 -2 16 5 22 14 22 34 0 36 -35 48 -46 16z"/>
<path d="M530 4340 c0 -11 5 -20 10 -20 6 0 10 6 10 14 0 8 6 17 13 19 6 3 2
6 -10 6 -17 1 -23 -5 -23 -19z"/>
<path d="M3546 4337 c3 -10 9 -15 12 -12 3 3 0 11 -7 18 -10 9 -11 8 -5 -6z"/>
<path d="M4184 4325 c-3 -8 -4 -20 -2 -27 3 -7 7 -1 10 15 6 29 1 36 -8 12z"/>
<path d="M4380 4325 c0 -17 -2 -17 -10 -5 -8 12 -10 9 -10 -12 0 -21 -4 -26
-20 -23 -11 2 -20 -1 -20 -6 0 -6 -4 -8 -9 -5 -7 5 -21 -15 -21 -30 0 -6 55 1
68 10 14 8 27 -17 17 -34 -3 -5 -2 -10 3 -10 18 0 24 34 8 46 -27 19 -20 35
10 23 15 -5 27 -8 28 -7 0 2 6 13 13 24 10 19 9 22 -14 22 -14 0 -29 6 -34 13
-7 11 -9 9 -9 -6z m-25 -55 c3 -5 -1 -10 -10 -10 -9 0 -13 5 -10 10 3 6 8 10
10 10 2 0 7 -4 10 -10z"/>
<path d="M580 4310 c0 -5 7 -7 15 -4 8 4 15 8 15 10 0 2 -7 4 -15 4 -8 0 -15
-4 -15 -10z"/>
<path d="M176 4293 c-6 -14 -5 -15 5 -6 7 7 10 15 7 18 -3 3 -9 -2 -12 -12z"/>
<path d="M220 4291 c0 -5 7 -12 16 -15 14 -5 15 -4 4 9 -14 17 -20 19 -20 6z"/>
<path d="M217 4250 c3 -11 7 -20 9 -20 2 0 4 9 4 20 0 11 -4 20 -9 20 -5 0 -7
-9 -4 -20z"/>
<path d="M322 4200 c0 -14 2 -19 5 -12 2 6 2 18 0 25 -3 6 -5 1 -5 -13z"/>
<path d="M111 4194 c0 -11 3 -14 6 -6 3 7 2 16 -1 19 -3 4 -6 -2 -5 -13z"/>
<path d="M65 4160 c3 -5 11 -10 16 -10 6 0 7 5 4 10 -3 6 -11 10 -16 10 -6 0
-7 -4 -4 -10z"/>
<path d="M277 4153 c-4 -3 -7 -11 -7 -17 0 -6 5 -5 12 2 6 6 9 14 7 17 -3 3
-9 2 -12 -2z"/>
<path d="M101 4094 c0 -11 3 -14 6 -6 3 7 2 16 -1 19 -3 4 -6 -2 -5 -13z"/>
<path d="M166 4005 c-3 -8 -1 -15 4 -15 6 0 10 7 10 15 0 8 -2 15 -4 15 -2 0
-6 -7 -10 -15z"/>
<path d="M188 3999 c-3 -19 0 -25 14 -26 21 -2 23 7 4 32 -12 17 -13 17 -18
-6z"/>
<path d="M42 3990 c0 -14 2 -19 5 -12 2 6 2 18 0 25 -3 6 -5 1 -5 -13z"/>
<path d="M230 3930 c6 -11 12 -20 14 -20 2 0 2 9 -1 20 -3 11 -9 20 -15 20 -5
0 -4 -9 2 -20z"/>
<path d="M51 3914 c0 -11 3 -14 6 -6 3 7 2 16 -1 19 -3 4 -6 -2 -5 -13z"/>
<path d="M280 3919 c0 -5 5 -7 10 -4 6 3 10 8 10 11 0 2 -4 4 -10 4 -5 0 -10
-5 -10 -11z"/>
<path d="M190 3910 c0 -6 7 -10 15 -10 8 0 15 2 15 4 0 2 -7 6 -15 10 -8 3
-15 1 -15 -4z"/>
<path d="M52 3870 c0 -14 2 -19 5 -12 2 6 2 18 0 25 -3 6 -5 1 -5 -13z"/>
<path d="M0 3859 c0 -11 4 -18 10 -14 5 3 7 12 3 20 -7 21 -13 19 -13 -6z"/>
<path d="M0 3780 c0 -5 5 -10 10 -10 6 0 10 5 10 10 0 6 -4 10 -10 10 -5 0
-10 -4 -10 -10z"/>
<path d="M682 3558 c-18 -22 -20 -121 -2 -148 15 -24 19 -7 9 39 -6 28 -6 55
0 79 12 40 9 49 -7 30z"/>
<path d="M2155 3460 c3 -5 8 -10 11 -10 2 0 4 5 4 10 0 6 -5 10 -11 10 -5 0
-7 -4 -4 -10z"/>
<path d="M2462 3285 c0 -70 2 -85 10 -68 7 15 7 43 1 90 l-10 68 -1 -90z"/>
<path d="M2530 3285 c0 -50 4 -85 10 -85 6 0 10 35 10 85 0 50 -4 85 -10 85
-6 0 -10 -35 -10 -85z"/>
<path d="M1708 3296 c-2 -55 0 -66 13 -66 13 0 15 10 11 58 -6 81 -20 86 -24
8z"/>
<path d="M2086 3319 c-16 -42 -16 -49 -2 -84 9 -21 19 -36 22 -32 3 3 1 14 -5
25 -14 26 -14 68 0 93 6 11 9 25 6 32 -2 6 -11 -9 -21 -34z"/>
<path d="M2306 3339 c11 -31 11 -98 -1 -124 -8 -17 -7 -18 7 -7 9 7 18 25 21
41 7 32 -8 97 -24 107 -8 4 -8 -1 -3 -17z"/>
<path d="M3199 3360 c0 -3 -1 -33 -2 -68 -2 -51 1 -62 14 -62 13 0 15 10 11
58 -2 31 -8 61 -13 67 -5 5 -9 7 -10 5z"/>
<path d="M1190 3314 c-10 -28 -10 -46 -1 -75 7 -22 16 -39 21 -39 6 0 6 10 0
26 -13 33 -13 80 0 105 7 11 7 19 1 19 -5 0 -15 -16 -21 -36z"/>
<path d="M1548 3344 c-11 -10 -10 -86 1 -102 5 -8 17 -12 27 -10 14 2 20 13
22 41 3 32 0 39 -17 44 -11 3 -21 12 -23 20 -2 8 -6 11 -10 7z m42 -74 c0 -25
-18 -36 -26 -16 -8 21 3 49 16 41 5 -3 10 -15 10 -25z"/>
<path d="M2160 3339 c0 -5 5 -7 10 -4 6 3 10 8 10 11 0 2 -4 4 -10 4 -5 0 -10
-5 -10 -11z"/>
<path d="M2680 3310 c0 -22 5 -40 10 -40 6 0 10 18 10 40 0 22 -4 40 -10 40
-5 0 -10 -18 -10 -40z"/>
<path d="M3032 3293 c3 -54 5 -58 28 -58 22 0 25 5 28 38 3 32 0 39 -17 44
-12 3 -21 12 -21 19 0 8 -5 14 -10 14 -7 0 -10 -22 -8 -57z m43 -3 c8 -13 -4
-50 -16 -50 -5 0 -9 14 -9 30 0 30 13 40 25 20z"/>
<path d="M3570 3314 c-10 -28 -10 -46 -1 -75 7 -22 16 -39 21 -39 6 0 6 10 0
26 -13 33 -13 80 0 105 7 11 7 19 1 19 -5 0 -15 -16 -21 -36z"/>
<path d="M3794 3337 c16 -46 17 -69 7 -98 -13 -39 -7 -50 9 -18 18 32 14 99
-6 118 -15 15 -16 15 -10 -2z"/>
<path d="M3870 3331 c5 -11 10 -36 10 -56 0 -20 -5 -45 -10 -56 -6 -11 -7 -19
-1 -19 10 0 31 54 31 81 0 24 -21 69 -32 69 -5 0 -4 -9 2 -19z"/>
<path d="M2222 3327 c-18 -21 6 -91 33 -95 18 -2 18 -2 3 8 -10 6 -18 20 -18
32 0 11 8 27 18 34 15 12 15 13 0 14 -9 0 -18 5 -20 11 -2 7 -8 6 -16 -4z"/>
<path d="M3711 3326 c-6 -7 -9 -20 -7 -27 2 -8 7 -26 10 -41 5 -21 12 -28 29
-28 20 1 20 2 5 11 -21 11 -24 55 -6 61 9 3 8 9 -4 21 -13 14 -18 14 -27 3z"/>
<path d="M1251 3303 c-1 -12 4 -34 9 -49 8 -19 7 -30 -1 -40 -7 -8 -10 -17 -7
-19 9 -9 28 21 42 69 8 26 10 48 5 52 -5 3 -9 -4 -9 -15 0 -32 -17 -34 -28 -4
-9 25 -11 25 -11 6z"/>
<path d="M1324 3307 c-3 -9 -4 -28 -2 -44 2 -22 8 -28 28 -28 23 0 25 4 25 40
0 34 -3 40 -23 43 -13 2 -24 -3 -28 -11z m41 -17 c8 -13 -3 -50 -15 -50 -12 0
-23 37 -15 50 3 5 10 10 15 10 5 0 12 -5 15 -10z"/>
<path d="M1400 3316 c-3 -3 -4 -23 -2 -45 4 -35 8 -41 27 -41 17 0 24 7 28 27
6 33 -8 76 -17 53 -4 -9 -5 -25 -4 -35 2 -11 -1 -21 -7 -23 -5 -1 -12 14 -15
34 -3 20 -7 33 -10 30z"/>
<path d="M1624 3296 c-10 -40 -1 -61 26 -63 15 -1 18 0 8 3 -22 7 -24 24 -3
24 21 0 30 27 15 45 -19 22 -39 18 -46 -9z m36 -6 c0 -5 -4 -10 -10 -10 -5 0
-10 5 -10 10 0 6 5 10 10 10 6 0 10 -4 10 -10z"/>
<path d="M1785 3275 c0 -34 4 -45 16 -45 12 0 14 8 10 42 -8 57 -26 59 -26 3z"/>
<path d="M1852 3308 c-25 -25 -10 -78 21 -78 20 0 20 1 2 13 -17 13 -17 14 4
20 25 6 29 42 5 51 -20 8 -18 8 -32 -6z m28 -18 c0 -5 -4 -10 -10 -10 -5 0
-10 5 -10 10 0 6 5 10 10 10 6 0 10 -4 10 -10z"/>
<path d="M1925 3286 c8 -74 27 -68 49 14 7 24 6 24 -8 6 -9 -11 -16 -27 -17
-35 0 -9 -7 0 -15 19 l-14 35 5 -39z"/>
<path d="M2001 3306 c-7 -8 -11 -27 -9 -43 2 -21 9 -29 28 -31 22 -2 23 -1 8
8 -22 13 -24 32 -3 24 20 -8 31 22 15 41 -16 19 -24 19 -39 1z m29 -16 c0 -5
-4 -10 -10 -10 -5 0 -10 5 -10 10 0 6 5 10 10 10 6 0 10 -4 10 -10z"/>
<path d="M2154 3275 c-1 -36 3 -45 16 -45 13 0 15 7 11 42 -8 56 -26 59 -27 3z"/>
<path d="M2733 3306 c16 -41 18 -87 6 -103 -12 -14 -12 -16 1 -11 19 6 37 42
45 93 l6 40 -14 -30 -15 -30 -11 28 c-6 15 -13 27 -17 27 -3 0 -4 -6 -1 -14z"/>
<path d="M2811 3298 c-11 -31 1 -62 27 -66 16 -3 23 3 28 24 13 50 -37 89 -55
42z m39 -22 c0 -14 -5 -28 -10 -31 -13 -8 -24 20 -16 40 9 24 26 17 26 -9z"/>
<path d="M2887 3312 c-5 -7 -6 -29 -2 -48 5 -29 10 -35 28 -32 17 2 23 11 25
41 2 21 -1 37 -7 37 -6 0 -11 -17 -11 -37 0 -46 -17 -33 -22 17 -2 24 -6 31
-11 22z"/>
<path d="M3111 3298 c-12 -32 2 -63 30 -65 l24 -3 -25 11 -25 11 26 11 c22 10
25 16 18 35 -4 12 -15 22 -24 22 -9 0 -19 -10 -24 -22z m39 -2 c0 -3 -4 -8
-10 -11 -5 -3 -10 -1 -10 4 0 6 5 11 10 11 6 0 10 -2 10 -4z"/>
<path d="M3266 3308 c5 -7 8 -22 8 -33 0 -11 -3 -26 -8 -33 -5 -8 1 -12 17
-12 19 0 24 5 22 18 -13 62 -17 72 -31 72 -9 0 -12 -5 -8 -12z"/>
<path d="M3334 3296 c-10 -40 -1 -61 26 -64 22 -2 23 -1 8 8 -10 6 -18 16 -18
23 0 9 3 8 9 -1 6 -10 11 -10 21 3 10 12 11 21 3 33 -17 27 -42 26 -49 -2z
m36 -6 c0 -5 -4 -10 -10 -10 -5 0 -10 5 -10 10 0 6 5 10 10 10 6 0 10 -4 10
-10z"/>
<path d="M3406 3293 c18 -74 38 -77 49 -8 l6 40 -14 -30 -15 -30 -11 28 c-6
15 -13 27 -16 27 -3 0 -2 -12 1 -27z"/>
<path d="M3484 3306 c-3 -8 -4 -27 -2 -43 2 -22 9 -29 28 -30 25 -3 25 -3 3 7
-25 10 -32 26 -9 17 23 -9 39 18 26 42 -12 24 -38 28 -46 7z m36 -16 c0 -5 -4
-10 -10 -10 -5 0 -10 5 -10 10 0 6 5 10 10 10 6 0 10 -4 10 -10z"/>
<path d="M3646 3291 c4 -19 2 -37 -6 -46 -10 -13 -9 -15 12 -15 23 0 24 3 19
42 -3 23 -12 43 -18 45 -9 3 -11 -4 -7 -26z"/>
<path d="M1490 3246 c0 -9 5 -16 10 -16 6 0 10 4 10 9 0 6 -4 13 -10 16 -5 3
-10 -1 -10 -9z"/>
<path d="M2980 3244 c0 -8 5 -12 10 -9 6 4 8 11 5 16 -9 14 -15 11 -15 -7z"/>
<path d="M2680 3240 c0 -5 5 -10 10 -10 6 0 10 5 10 10 0 6 -4 10 -10 10 -5 0
-10 -4 -10 -10z"/>
<path d="M974 3139 c-11 -18 -7 -140 5 -152 6 -6 14 -8 18 -4 4 4 1 13 -5 19
-15 15 -16 114 -2 123 13 8 13 25 1 25 -6 0 -13 -5 -17 -11z"/>
<path d="M1566 2891 c2 -31 -1 -60 -7 -68 -9 -10 -6 -13 15 -13 22 0 25 3 18
18 -5 9 -8 32 -7 50 1 18 -4 41 -11 50 -10 14 -12 8 -8 -37z"/>
<path d="M1255 2920 c-3 -5 -1 -10 4 -10 15 0 14 -73 -1 -88 -9 -9 -6 -12 17
-12 23 0 26 3 17 12 -15 15 -16 74 -2 83 6 3 10 10 10 16 0 12 -37 12 -45 -1z"/>
<path d="M1400 2920 c-2 -15 -3 -88 -1 -102 2 -20 42 -6 51 18 11 29 -2 64
-25 64 -7 0 -16 8 -18 18 -4 13 -5 13 -7 2z m40 -64 c0 -14 -5 -28 -10 -31
-13 -8 -24 20 -16 40 9 24 26 17 26 -9z"/>
<path d="M1940 2910 c-7 -12 -12 -37 -12 -55 0 -31 19 -81 27 -73 3 2 -1 20
-7 40 -8 26 -8 44 1 69 13 38 8 50 -9 19z"/>
<path d="M2010 2919 c0 -5 5 -7 10 -4 6 3 10 8 10 11 0 2 -4 4 -10 4 -5 0 -10
-5 -10 -11z"/>
<path d="M2160 2911 c5 -11 10 -36 10 -56 0 -20 -5 -45 -10 -56 -7 -12 -7 -19
-1 -19 20 0 34 75 21 114 -6 20 -16 36 -21 36 -6 0 -6 -8 1 -19z"/>
<path d="M2072 2908 c-7 -7 -7 -19 -2 -34 5 -13 7 -24 4 -24 -2 0 0 -9 6 -20
17 -31 30 -24 17 10 -9 25 -9 32 6 42 16 12 16 14 -2 25 -13 8 -22 8 -29 1z"/>
<path d="M1474 2876 c-10 -40 -1 -61 26 -63 15 -1 18 0 8 3 -10 3 -18 12 -18
19 0 9 6 12 15 9 20 -8 31 22 15 41 -19 22 -39 18 -46 -9z m36 -6 c0 -5 -4
-10 -10 -10 -5 0 -10 5 -10 10 0 6 5 10 10 10 6 0 10 -4 10 -10z"/>
<path d="M1635 2855 c0 -36 3 -45 17 -45 14 0 16 6 12 33 -13 73 -29 80 -29
12z"/>
<path d="M1702 2888 c-25 -25 -11 -78 21 -78 20 0 20 1 2 13 -17 13 -17 14 4
20 17 4 22 12 19 29 -3 26 -27 35 -46 16z m28 -18 c0 -5 -4 -10 -10 -10 -5 0
-10 5 -10 10 0 6 5 10 10 10 6 0 10 -4 10 -10z"/>
<path d="M1770 2883 c0 -32 19 -78 29 -67 12 13 32 76 26 82 -2 3 -10 -8 -16
-24 l-11 -29 -14 30 c-11 26 -13 27 -14 8z"/>
<path d="M1852 2888 c-25 -25 -11 -78 21 -78 20 0 20 0 1 15 -18 14 -18 16 9
19 18 2 15 50 -3 54 -9 1 -21 -3 -28 -10z m28 -18 c0 -5 -4 -10 -10 -10 -5 0
-10 5 -10 10 0 6 5 10 10 10 6 0 10 -4 10 -10z"/>
<path d="M2005 2855 c0 -36 3 -45 17 -45 14 0 16 6 12 33 -13 73 -29 80 -29
12z"/>
<path d="M2235 2891 c-3 -5 -1 -12 5 -16 5 -3 10 1 10 9 0 18 -6 21 -15 7z"/>
<path d="M2239 2840 c-5 -32 -7 -60 -4 -60 12 0 23 38 14 51 -5 7 -9 12 -10 9z"/>
<path d="M1340 2820 c0 -5 5 -10 10 -10 6 0 10 5 10 10 0 6 -4 10 -10 10 -5 0
-10 -4 -10 -10z"/>
<path d="M967 2705 c10 -38 10 -70 0 -115 -7 -32 -6 -33 9 -19 23 23 23 125 0
147 -16 16 -17 15 -9 -13z"/>
<path d="M660 2511 c0 -6 5 -13 10 -16 14 -9 13 -108 -2 -123 -6 -6 -9 -15 -5
-19 23 -22 41 90 23 145 -7 22 -26 31 -26 13z"/>
<path d="M1120 2279 c-21 -39 -6 -129 21 -129 8 0 9 3 0 14 -13 15 -17 81 -7
114 9 28 0 29 -14 1z"/>
<path d="M2086 2285 c10 -26 11 -84 1 -115 -8 -24 -7 -24 7 -6 21 26 20 97 0
122 -15 19 -16 19 -8 -1z"/>
<path d="M1180 2235 c0 -51 2 -55 23 -54 16 1 18 2 5 6 -10 2 -18 13 -18 24 0
11 7 19 18 19 16 1 16 1 0 11 -21 12 -24 35 -5 42 7 3 5 6 -5 6 -15 1 -18 -8
-18 -54z"/>
<path d="M1557 2278 c-9 -24 8 -91 23 -95 10 -3 11 -2 4 4 -6 4 -14 25 -17 45
-5 31 -3 36 11 31 10 -3 13 -1 7 4 -5 4 -13 12 -16 16 -4 4 -9 2 -12 -5z"/>
<path d="M1342 2258 c-7 -7 -11 -21 -11 -32 1 -21 1 -21 6 -1 3 11 10 26 15
33 13 15 6 16 -10 0z"/>
<path d="M1412 2258 c-11 -11 -17 -68 -8 -68 2 0 13 -3 23 -6 17 -6 17 -6 1 7
-17 15 -20 61 -3 57 6 -2 9 -9 9 -15 -1 -7 2 -13 7 -13 14 0 11 26 -4 39 -10
8 -17 7 -25 -1z"/>
<path d="M1488 2259 c-10 -5 -18 -20 -18 -32 0 -21 1 -21 13 3 8 14 19 24 26
22 7 -1 10 2 6 8 -7 12 -6 12 -27 -1z"/>
<path d="M1635 2260 c3 -5 8 -10 11 -10 2 0 4 5 4 10 0 6 -5 10 -11 10 -5 0
-7 -4 -4 -10z"/>
<path d="M1728 2258 c17 -21 12 -63 -8 -63 -8 0 -17 11 -21 25 -6 22 -7 23 -8
4 -1 -31 24 -50 44 -34 20 17 19 54 -2 71 -16 13 -17 12 -5 -3z"/>
<path d="M1921 2248 c-12 -32 2 -63 30 -65 l24 -3 -22 10 c-25 10 -32 26 -8
16 20 -7 36 24 24 47 -14 24 -38 21 -48 -5z m39 -2 c0 -11 -19 -15 -25 -6 -3
5 1 10 9 10 9 0 16 -2 16 -4z"/>
<path d="M1990 2266 c0 -4 5 -16 11 -27 8 -15 7 -24 -2 -35 -6 -8 -9 -18 -5
-21 4 -4 12 -1 17 7 8 11 12 12 16 3 2 -7 9 -13 14 -13 6 0 5 8 -1 20 -7 14
-8 26 0 39 14 28 12 36 -5 21 -12 -10 -18 -10 -30 0 -8 7 -15 9 -15 6z"/>
<path d="M1770 2225 c0 -19 2 -35 4 -35 2 0 6 16 8 35 2 19 0 35 -4 35 -4 0
-8 -16 -8 -35z"/>
<path d="M1813 2225 c0 -22 2 -30 4 -17 2 12 2 30 0 40 -3 9 -5 -1 -4 -23z"/>
<path d="M1265 2225 c0 -13 2 -21 4 -19 2 2 11 -2 20 -9 14 -10 14 -10 3 5 -8
9 -11 21 -8 27 3 5 0 11 -7 14 -7 3 -12 -4 -12 -18z"/>
<path d="M1521 2224 c0 -11 3 -14 6 -6 3 7 2 16 -1 19 -3 4 -6 -2 -5 -13z"/>
<path d="M1473 2171 c0 -14 1 -18 4 -8 2 9 11 17 18 17 23 0 24 15 1 16 -17 1
-22 -4 -23 -25z"/>
<path d="M1640 2190 c-12 -8 -10 -10 8 -10 13 0 20 4 17 10 -7 12 -6 12 -25 0z"/>
<path d="M680 2085 c-19 -23 -15 -124 5 -144 16 -15 17 -15 12 4 -15 54 -16
83 -7 114 11 40 8 48 -10 26z"/>
<path d="M2380 1844 c-13 -39 1 -114 21 -114 6 0 6 7 -1 19 -5 11 -10 36 -10
56 0 20 5 45 10 56 7 11 7 19 1 19 -5 0 -15 -16 -21 -36z"/>
<path d="M2451 1864 c0 -11 3 -14 6 -6 3 7 2 16 -1 19 -3 4 -6 -2 -5 -13z"/>
<path d="M2470 1866 c0 -9 5 -16 10 -16 6 0 10 4 10 9 0 6 -4 13 -10 16 -5 3
-10 -1 -10 -9z"/>
<path d="M2525 1820 c0 -47 3 -60 15 -60 12 0 15 13 15 60 0 47 -3 60 -15 60
-12 0 -15 -13 -15 -60z"/>
<path d="M2680 1866 c0 -9 5 -16 10 -16 6 0 10 4 10 9 0 6 -4 13 -10 16 -5 3
-10 -1 -10 -9z"/>
<path d="M3429 1829 c2 -36 -1 -54 -10 -60 -10 -6 -7 -9 10 -9 17 0 22 4 17
16 -3 9 -6 36 -6 60 0 24 -3 44 -7 44 -5 0 -6 -23 -4 -51z"/>
<path d="M3577 1873 c-11 -10 -8 -61 3 -68 6 -4 10 10 10 34 0 42 -2 46 -13
34z"/>
<path d="M3641 1864 c0 -11 3 -14 6 -6 3 7 2 16 -1 19 -3 4 -6 -2 -5 -13z"/>
<path d="M3660 1865 c0 -8 5 -15 10 -15 6 0 10 7 10 15 0 8 -4 15 -10 15 -5 0
-10 -7 -10 -15z"/>
<path d="M3720 1861 c5 -11 10 -36 10 -56 0 -20 -5 -45 -10 -56 -6 -10 -7 -19
-2 -19 12 0 32 46 32 75 0 32 -17 75 -30 75 -7 0 -8 -6 0 -19z"/>
<path d="M1702 1818 c3 -44 6 -53 23 -55 16 -1 16 -1 3 3 -22 7 -24 44 -3 44
8 0 15 5 15 11 0 6 -7 8 -16 5 -13 -5 -15 -1 -12 19 3 14 1 25 -4 25 -5 0 -8
-24 -6 -52z"/>
<path d="M2078 1857 c-2 -7 -1 -28 3 -47 l6 -35 2 32 c0 17 5 33 10 35 5 2 3
8 -4 15 -10 9 -14 9 -17 0z"/>
<path d="M2598 1859 c-3 -8 -3 -32 1 -54 5 -29 12 -41 26 -43 18 -2 19 -2 3 8
-10 6 -18 20 -18 32 0 11 8 27 18 34 15 12 15 13 0 14 -9 0 -18 5 -20 12 -3 8
-6 7 -10 -3z"/>
<path d="M1859 1833 c-13 -16 -12 -17 4 -4 9 7 17 15 17 17 0 8 -8 3 -21 -13z"/>
<path d="M1932 1838 c-23 -23 -11 -78 17 -78 14 1 14 2 -1 11 -21 12 -24 49
-6 67 7 7 10 12 7 12 -3 0 -10 -5 -17 -12z"/>
<path d="M2028 1840 c26 -30 7 -85 -22 -61 -9 8 -13 7 -13 -4 0 -18 28 -20 45
-3 18 18 15 54 -5 69 -15 11 -16 11 -5 -1z"/>
<path d="M2158 1838 c7 -7 12 -23 13 -37 0 -15 3 -20 6 -13 7 19 -6 62 -19 62
-9 0 -9 -3 0 -12z"/>
<path d="M2249 1836 c14 -17 11 -58 -5 -63 -6 -2 -16 7 -22 19 -6 13 -11 18
-11 12 -1 -5 5 -19 13 -29 12 -16 16 -17 30 -6 21 18 21 67 0 75 -14 5 -15 4
-5 -8z"/>
<path d="M2327 1813 c8 -50 13 -55 13 -10 0 20 -4 38 -9 42 -6 3 -7 -10 -4
-32z"/>
<path d="M2743 1835 c-3 -9 2 -24 11 -34 20 -22 20 -28 -1 -34 -13 -4 -12 -5
5 -6 30 -1 41 28 16 47 -13 10 -15 16 -6 19 17 7 15 23 -3 23 -9 0 -18 -7 -22
-15z"/>
<path d="M2900 1840 c0 -5 5 -10 10 -10 6 0 10 -4 10 -10 0 -5 -7 -10 -15 -10
-9 0 -15 -10 -15 -26 0 -21 4 -25 22 -22 25 3 33 26 24 64 -6 23 -36 35 -36
14z m21 -63 c-13 -13 -26 -3 -16 12 3 6 11 8 17 5 6 -4 6 -10 -1 -17z"/>
<path d="M3036 1843 c-3 -4 -5 -22 -5 -42 l1 -36 8 30 8 30 1 -27 c1 -39 21
-35 22 5 l2 32 7 -35 c5 -25 9 -31 14 -19 16 36 -32 87 -58 62z"/>
<path d="M3125 1805 c0 -35 4 -45 17 -45 10 0 15 6 13 18 -12 59 -16 72 -23
72 -4 0 -7 -20 -7 -45z"/>
<path d="M3203 1843 c-8 -3 -12 -20 -11 -41 l1 -37 4 33 c4 28 8 33 24 29 12
-3 19 -1 16 6 -4 13 -18 17 -34 10z"/>
<path d="M3270 1841 c0 -6 8 -11 18 -12 14 0 13 -3 -5 -16 -32 -22 -30 -53 3
-53 23 0 25 3 22 42 -2 31 -8 44 -20 46 -10 2 -18 -1 -18 -7z m30 -49 c0 -13
-12 -22 -22 -16 -10 6 -1 24 13 24 5 0 9 -4 9 -8z"/>
<path d="M3338 1824 c-14 -30 -2 -57 28 -62 18 -3 18 -2 2 8 -10 6 -18 20 -18
32 0 11 8 27 18 34 16 13 16 13 -1 14 -9 0 -23 -12 -29 -26z"/>
<path d="M3491 1836 c-7 -8 -11 -27 -9 -43 2 -22 9 -29 28 -30 20 -2 21 -1 7
5 -18 8 -25 27 -9 27 21 1 32 17 22 36 -13 23 -23 24 -39 5z m29 -16 c0 -5 -4
-10 -10 -10 -5 0 -10 5 -10 10 0 6 5 10 10 10 6 0 10 -4 10 -10z"/>
<path d="M3801 1834 c0 -11 3 -14 6 -6 3 7 2 16 -1 19 -3 4 -6 -2 -5 -13z"/>
<path d="M1779 1827 c7 -9 11 -23 8 -31 -4 -10 -1 -13 7 -10 19 7 15 30 -8 44
-19 12 -20 12 -7 -3z"/>
<path d="M1960 1826 c0 -8 -6 -17 -12 -19 -8 -3 -6 -6 5 -6 11 -1 17 6 17 19
0 11 -2 20 -5 20 -3 0 -5 -6 -5 -14z"/>
<path d="M1993 1825 c-3 -9 -3 -18 -1 -21 3 -3 8 4 11 16 6 23 -1 27 -10 5z"/>
<path d="M2290 1805 c0 -19 2 -35 4 -35 2 0 6 16 8 35 2 19 0 35 -4 35 -4 0
-8 -16 -8 -35z"/>
<path d="M3800 1776 c0 -8 -3 -23 -7 -33 -6 -16 -5 -16 10 -4 19 15 22 37 7
46 -5 3 -10 0 -10 -9z"/>
<path d="M2168 1763 c7 -3 16 -2 19 1 4 3 -2 6 -13 5 -11 0 -14 -3 -6 -6z"/>
<path d="M660 1671 c0 -6 5 -13 10 -16 14 -9 13 -108 -2 -123 -6 -6 -9 -15 -5
-19 23 -22 41 90 23 145 -7 22 -26 31 -26 13z"/>
<path d="M682 1248 c-18 -22 -20 -121 -2 -148 15 -24 19 -7 9 39 -6 28 -6 55
0 79 12 40 9 49 -7 30z"/>
<path d="M2093 1028 c-22 -44 -24 -67 -8 -104 8 -20 18 -35 21 -31 3 3 1 14
-5 25 -14 26 -14 68 0 93 6 11 9 25 7 30 -2 6 -9 0 -15 -13z"/>
<path d="M970 1030 c0 -5 5 -10 10 -10 6 0 10 5 10 10 0 6 -4 10 -10 10 -5 0
-10 -4 -10 -10z"/>
<path d="M1205 1030 c3 -5 8 -10 11 -10 2 0 4 5 4 10 0 6 -5 10 -11 10 -5 0
-7 -4 -4 -10z"/>
<path d="M2025 1030 c-3 -5 -3 -10 2 -10 4 0 -3 -7 -15 -16 -17 -12 -22 -24
-20 -47 2 -27 8 -33 31 -35 27 -3 27 -3 27 57 0 56 -10 76 -25 51z m5 -64 c0
-27 -16 -44 -23 -24 -5 18 3 48 14 48 5 0 9 -11 9 -24z"/>
<path d="M2163 1001 c8 -28 8 -50 0 -75 -6 -20 -7 -36 -2 -36 4 0 13 17 20 39
9 29 9 47 -1 75 -16 49 -30 46 -17 -3z"/>
<path d="M1028 1013 c-10 -13 -10 -17 0 -20 6 -3 12 -20 12 -39 0 -25 4 -34
17 -34 13 0 14 3 5 12 -17 17 -15 49 3 62 13 10 13 13 -4 23 -16 10 -22 9 -33
-4z"/>
<path d="M1407 1017 c-2 -7 -2 -30 2 -52 5 -29 12 -41 26 -43 18 -2 19 -2 3 8
-22 13 -23 49 -3 56 20 8 19 17 -4 31 -15 9 -20 9 -24 0z"/>
<path d="M1466 993 c-5 -26 -4 -49 3 -60 9 -16 10 -15 11 10 0 17 5 27 15 27
8 0 15 -9 15 -19 0 -11 5 -23 10 -26 6 -4 10 15 10 49 0 31 -4 56 -10 56 -5 0
-10 -9 -10 -20 0 -27 -28 -25 -32 3 -3 15 -6 10 -12 -20z"/>
<path d="M967 974 c4 -25 2 -39 -8 -45 -10 -6 -6 -9 13 -9 25 0 27 2 22 33 -8
47 -12 57 -23 57 -6 0 -7 -15 -4 -36z"/>
<path d="M1180 1000 c0 -5 4 -10 9 -10 5 0 11 -18 13 -41 3 -29 -1 -43 -12
-49 -8 -5 -12 -12 -8 -16 18 -18 38 20 38 72 0 47 -2 54 -20 54 -11 0 -20 -4
-20 -10z"/>
<path d="M1252 967 c-2 -47 -1 -48 26 -45 24 3 27 7 27 41 0 38 -19 49 -22 12
0 -11 -1 -27 -2 -34 -2 -27 -19 3 -24 39 -3 29 -4 27 -5 -13z"/>
<path d="M1337 1003 c-13 -13 -7 -41 11 -48 16 -6 16 -7 -2 -21 -19 -14 -19
-14 2 -14 33 0 38 27 11 50 -20 16 -21 19 -6 20 9 0 17 5 17 10 0 11 -23 14
-33 3z"/>
<path d="M1560 1001 c0 -6 5 -11 10 -11 6 0 10 -4 10 -10 0 -5 -6 -10 -14 -10
-8 0 -16 -6 -19 -12 -7 -23 5 -38 30 -38 22 0 24 3 21 42 -2 31 -8 44 -20 46
-10 2 -18 -1 -18 -7z m20 -61 c0 -5 -2 -10 -4 -10 -3 0 -8 5 -11 10 -3 6 -1
10 4 10 6 0 11 -4 11 -10z"/>
<path d="M1614 985 c-6 -24 0 -93 9 -102 4 -3 10 3 14 13 3 10 15 25 25 32 19
14 24 48 10 69 -12 19 -52 11 -58 -12z m46 -19 c0 -14 -4 -28 -10 -31 -6 -4
-10 7 -10 24 0 17 5 31 10 31 6 0 10 -11 10 -24z"/>
<path d="M1697 1004 c-11 -11 -8 -114 3 -114 6 0 10 6 10 14 0 7 9 16 21 19
17 5 20 12 17 44 -2 29 -8 39 -23 41 -12 2 -24 0 -28 -4z m38 -24 c9 -14 -4
-52 -16 -45 -12 8 -12 55 0 55 6 0 13 -5 16 -10z"/>
<path d="M1777 1003 c-12 -11 -8 -70 6 -81 7 -6 19 -7 26 -3 9 6 7 10 -9 14
-14 3 -19 10 -15 17 6 9 9 9 15 1 5 -9 10 -8 19 3 22 27 -18 74 -42 49z m33
-17 c0 -3 -4 -8 -10 -11 -5 -3 -10 -1 -10 4 0 6 5 11 10 11 6 0 10 -2 10 -4z"/>
<path d="M1847 1004 c-11 -11 -8 -74 3 -74 6 0 10 14 10 30 0 17 5 30 10 30 6
0 10 -16 10 -35 0 -19 5 -35 11 -35 6 0 9 17 7 43 -2 33 -7 43 -23 45 -12 2
-24 0 -28 -4z"/>
<path d="M1921 988 c-15 -41 16 -95 41 -70 9 9 8 12 -4 12 -9 0 -20 5 -24 12
-5 8 -2 9 9 5 22 -8 39 22 26 46 -14 24 -38 21 -48 -5z m39 -2 c0 -11 -19 -15
-25 -6 -3 5 1 10 9 10 9 0 16 -2 16 -4z"/>
<path d="M2235 1001 c-3 -5 -1 -12 5 -16 5 -3 10 1 10 9 0 18 -6 21 -15 7z"/>
<path d="M1120 936 c0 -9 5 -16 10 -16 6 0 10 4 10 9 0 6 -4 13 -10 16 -5 3
-10 -1 -10 -9z"/>
<path d="M2239 950 c-5 -32 -7 -60 -4 -60 12 0 23 38 14 51 -5 7 -9 12 -10 9z"/>
<path d="M660 833 c0 -7 5 -15 10 -18 14 -9 13 -108 -2 -123 -6 -6 -9 -15 -5
-19 16 -15 28 17 29 76 1 45 -4 67 -16 79 -9 9 -16 11 -16 5z"/>
<path d="M160 400 c0 -13 5 -18 15 -14 12 5 13 10 4 20 -15 19 -19 18 -19 -6z"/>
<path d="M200 410 c0 -5 5 -10 10 -10 6 0 10 5 10 10 0 6 -4 10 -10 10 -5 0
-10 -4 -10 -10z"/>
<path d="M85 387 c-4 -10 -5 -21 -1 -24 10 -10 18 4 13 24 -4 17 -4 17 -12 0z"/>
<path d="M205 380 c3 -5 8 -10 11 -10 2 0 4 5 4 10 0 6 -5 10 -11 10 -5 0 -7
-4 -4 -10z"/>
<path d="M4256 364 c-4 -9 -4 -19 -1 -22 2 -3 7 3 11 12 4 9 4 19 1 22 -2 3
-7 -3 -11 -12z"/>
<path d="M2 345 c0 -16 2 -22 5 -12 2 9 2 23 0 30 -3 6 -5 -1 -5 -18z"/>
<path d="M20 271 c0 -7 -4 -9 -10 -6 -5 3 -10 -2 -10 -12 0 -16 1 -16 17 0 9
9 14 20 10 23 -4 4 -7 2 -7 -5z"/>
<path d="M57 236 c-4 -10 -1 -13 8 -9 8 3 12 9 9 14 -7 12 -11 11 -17 -5z"/>
<path d="M251 211 c-7 -5 -11 -15 -9 -22 3 -10 8 -7 17 9 13 24 12 26 -8 13z"/>
<path d="M875 170 c-3 -5 -1 -10 4 -10 6 0 11 5 11 10 0 6 -2 10 -4 10 -3 0
-8 -4 -11 -10z"/>
<path d="M4440 159 c0 -5 5 -7 10 -4 6 3 10 8 10 11 0 2 -4 4 -10 4 -5 0 -10
-5 -10 -11z"/>
<path d="M860 124 c0 -8 5 -12 10 -9 6 3 10 10 10 16 0 5 -4 9 -10 9 -5 0 -10
-7 -10 -16z"/>
<path d="M485 120 c3 -5 8 -10 11 -10 2 0 4 5 4 10 0 6 -5 10 -11 10 -5 0 -7
-4 -4 -10z"/>
<path d="M1036 113 c-6 -14 -5 -15 5 -6 7 7 10 15 7 18 -3 3 -9 -2 -12 -12z"/>
<path d="M60 100 c0 -5 5 -10 11 -10 5 0 7 5 4 10 -3 6 -8 10 -11 10 -2 0 -4
-4 -4 -10z"/>
<path d="M828 104 c-8 -8 3 -44 13 -44 5 0 9 11 9 25 0 24 -10 32 -22 19z"/>
<path d="M3820 103 c0 -4 5 -15 10 -23 8 -13 10 -13 10 2 0 9 -4 20 -10 23 -5
3 -10 3 -10 -2z"/>
<path d="M464 88 c-3 -4 2 -8 10 -8 8 0 17 4 20 8 3 5 -2 9 -10 9 -8 0 -17 -4
-20 -9z"/>
<path d="M547 93 c-4 -3 -7 -11 -7 -17 0 -6 5 -5 12 2 6 6 9 14 7 17 -3 3 -9
2 -12 -2z"/>
<path d="M1340 93 c1 -18 18 -35 24 -24 4 6 4 16 1 21 -7 12 -25 13 -25 3z"/>
<path d="M880 75 c0 -8 4 -15 10 -15 5 0 7 7 4 15 -4 8 -8 15 -10 15 -2 0 -4
-7 -4 -15z"/>
<path d="M3421 74 c0 -11 3 -14 6 -6 3 7 2 16 -1 19 -3 4 -6 -2 -5 -13z"/>
<path d="M4127 75 c3 -8 9 -12 14 -9 12 7 11 11 -5 17 -10 4 -13 1 -9 -8z"/>
<path d="M1245 60 c-3 -5 -1 -10 4 -10 6 0 11 5 11 10 0 6 -2 10 -4 10 -3 0
-8 -4 -11 -10z"/>
</g>
</svg>
